Coordinates
version=1
nRows=23
nColumns=28
inDegrees=yes

Units are S.I. units (second, meters, Newtons, ...)
If the header above contains a line with 'inDegrees', this indicates whether rotational values are in degrees (yes) or radians (no).

endheader
time	pelvis_tilt	pelvis_list	pelvis_rotation	pelvis_tx	pelvis_ty	pelvis_tz	hip_flexion_r	hip_adduction_r	hip_rotation_r	knee_angle_r	knee_rotation_r	knee_adduction_r	ankle_angle_r	subtalar_angle_r	mtp_angle_r	hip_flexion_l	hip_adduction_l	hip_rotation_l	knee_angle_l	knee_rotation_l	knee_adduction_l	ankle_angle_l	subtalar_angle_l	mtp_angle_l	lumbar_extension	lumbar_bending	lumbar_rotation
      0.58000000	     13.66787345	      5.50315084	    -84.96980471	     -0.19902871	      0.96257675	     -0.27409217	     36.83425309	    -23.04568095	      8.41080083	    -32.59632623	    -13.37869679	     13.52632028	      5.32254053	     -6.24609840	     -5.41484906	      5.79310456	     16.51422064	      8.82533736	    -16.40865624	     11.73423477	     -2.75465775	     22.46807106	     -2.39117383	     -5.06525801	      0.00000000	      0.00000000	      0.00000000
      0.59000000	     13.54793887	      5.80378752	    -85.02200524	     -0.19975883	      0.96111133	     -0.26287494	     36.55708371	    -22.29347360	      8.37172446	    -28.94383866	    -15.70586008	     12.37483257	      5.74882380	     -4.50524849	     -5.30754770	      5.42611096	     16.25005531	      8.98611812	    -16.53709943	     11.64377349	     -2.92164998	     23.03513858	     -2.53148000	     -5.24043467	      0.00000000	      0.00000000	      0.00000000
      0.60000000	     13.41410744	      6.07693001	    -85.11269890	     -0.20081333	      0.95968664	     -0.25160817	     36.17861434	    -21.43903301	      8.04262750	    -25.12370846	    -17.66556444	     10.89624316	      6.46152635	     -2.79788439	     -5.22628896	      5.06056300	     15.87890762	      8.95186136	    -16.69068537	     11.51374348	     -3.16206397	     23.57728507	     -2.33165430	     -5.42724306	      0.00000000	      0.00000000	      0.00000000
      0.61000000	     13.09179905	      6.43816350	    -85.25715719	     -0.20227460	      0.95810829	     -0.24041217	     35.81088212	    -20.18655208	      7.82327148	    -21.12596157	    -19.79407072	      9.02335865	      7.05107989	     -0.93367443	     -5.06006302	      4.93256593	     15.22697539	      8.44945948	    -17.03595231	     11.06195600	     -3.47213447	     24.26177275	     -2.24801224	     -5.61552296	      0.00000000	      0.00000000	      0.00000000
      0.62000000	     12.83893150	      6.82075857	    -85.29142714	     -0.20363405	      0.95633302	     -0.22902864	     35.48090087	    -18.99959979	      7.08184572	    -17.07926893	    -21.63742290	      6.75785142	      7.57529740	      1.36927283	     -4.78721268	      4.78124795	     14.68297247	      8.08596180	    -17.35164846	     10.78856237	     -3.71048872	     24.89748234	     -2.05537462	     -5.75457907	      0.00000000	      0.00000000	      0.00000000
      0.63000000	     12.54058736	      7.24300564	    -85.12548588	     -0.20504787	      0.95458451	     -0.21792169	     35.08976075	    -17.86699046	      6.05305479	    -12.87242687	    -22.84709421	      4.39403537	      7.99298619	      3.49549040	     -4.17970209	      4.73095067	     14.05831634	      8.08624150	    -17.80903055	     10.66059321	     -4.10037318	     25.61580542	     -1.74771067	     -6.03975555	      0.00000000	      0.00000000	      0.00000000
      0.64000000	     12.24706276	      7.65647754	    -84.95852684	     -0.20617708	      0.95280595	     -0.20640136	     34.57622516	    -16.84564052	      5.10064332	     -8.62323374	    -23.02362844	      2.27338091	      8.02288036	      3.17515140	     -3.60029283	      4.65947970	     13.53304341	      7.81013257	    -18.29933094	     10.31827031	     -4.23884254	     26.19518462	     -1.35559966	     -6.25985052	      0.00000000	      0.00000000	      0.00000000
      0.65000000	     12.00627953	      7.95127408	    -84.63559188	     -0.20647562	      0.95111278	     -0.19464815	     33.83019422	    -16.30572894	      4.04163469	     -4.74512917	    -22.87055138	      0.94680994	      7.86222936	      1.91155084	     -3.31606985	      4.39112078	     13.16611957	      7.98400166	    -18.72068790	     10.16978845	     -4.41166560	     26.57449742	     -1.43463618	     -6.55418469	      0.00000000	      0.00000000	      0.00000000
      0.66000000	     11.91503089	      8.03154976	    -84.19804262	     -0.20594735	      0.94954351	     -0.18247311	     32.96618299	    -16.14607046	      3.29640895	     -1.57034319	    -23.38003065	     -0.00577666	      7.75644215	      1.16260497	     -3.44818678	      3.74813886	     13.10497167	      8.20695271	    -18.94253607	     10.17089731	     -4.26211520	     26.91630105	     -1.24330866	     -6.75821489	      0.00000000	      0.00000000	      0.00000000
      0.67000000	     11.98877884	      8.32853683	    -83.97366808	     -0.20588952	      0.94751675	     -0.17119895	     32.92391411	    -16.21617532	      3.56708385	      0.36237817	    -25.05745132	     -0.30333336	      7.64049539	      0.58205704	     -3.69831941	      3.52386591	     13.16631090	      8.61217386	    -19.41270564	     10.46358990	     -4.35695456	     27.23330091	     -1.08054687	     -6.97781093	      0.00000000	      0.00000000	      0.00000000
      0.68000000	     12.03903686	      8.62179200	    -83.69637253	     -0.20575204	      0.94541054	     -0.15971583	     33.05878026	    -16.26696588	      4.66722297	      1.58133761	    -27.79815701	     -0.84437572	      7.82251078	      1.75963586	     -3.81402969	      3.31271457	     13.17966863	      8.68757311	    -19.93493423	     10.47803681	     -4.39799698	     27.55154742	     -0.84164069	     -7.19510750	      0.00000000	      0.00000000	      0.00000000
      0.69000000	     12.19881679	      8.90919078	    -83.27525593	     -0.20597865	      0.94319956	     -0.14806606	     33.54858727	    -16.45688588	      6.11034574	      1.58223753	    -30.10184543	     -1.25068904	      8.30486061	      2.92948198	     -3.63450821	      3.14246926	     13.22842621	      8.81148772	    -20.64398165	     10.41858097	     -4.42195081	     27.87710644	     -0.25463079	     -7.31025889	      0.00000000	      0.00000000	      0.00000000
      0.70000000	     12.48399095	      9.24089388	    -82.97037623	     -0.20649065	      0.94085830	     -0.13619819	     34.28255845	    -16.78698020	      8.24376207	      0.78694541	    -32.06349463	     -1.36694519	      8.73138782	      3.38960095	     -2.93008023	      2.95005963	     13.41054400	      8.88425646	    -21.21243197	      9.97612782	     -4.36381067	     27.94413668	     -0.30328082	     -7.39707867	      0.00000000	      0.00000000	      0.00000000
      0.71000000	     12.61667101	      9.22989641	    -82.40631274	     -0.20670899	      0.93917896	     -0.12420169	     34.70605818	    -17.22167292	      9.76192338	     -0.98810153	    -32.45800012	     -0.83434829	      9.48007892	      2.08284290	     -2.51981548	      2.42598350	     13.39952274	      9.56486938	    -21.90840270	     10.13174797	     -4.44540715	     27.86623019	     -0.05122408	     -7.47030940	      0.00000000	      0.00000000	      0.00000000
      0.72000000	     12.70699267	      9.40427994	    -81.80306174	     -0.20727644	      0.93727353	     -0.11164478	     35.37961275	    -17.63955612	     11.16556065	     -3.30400300	    -32.14749781	      0.00644897	      9.81809199	      0.25315822	     -2.04447671	      2.18513716	     13.18950941	      9.75382627	    -22.77520897	      9.66981721	     -4.59195600	     27.82081708	      0.27018408	     -7.51713903	      0.00000000	      0.00000000	      0.00000000
      0.73000000	     12.58778262	      9.44438924	    -81.28466459	     -0.20771087	      0.93600528	     -0.09912668	     35.83635289	    -17.97072611	     12.03283703	     -5.91983007	    -31.06598819	      1.29323345	     10.06044495	     -0.68173227	     -1.98207804	      1.83938207	     12.84714634	     10.23248664	    -23.58833671	      9.31279315	     -4.65868247	     27.69153002	      0.32984915	     -7.57911531	      0.00000000	      0.00000000	      0.00000000
      0.74000000	     12.54192152	      9.56124943	    -80.72036012	     -0.20824335	      0.93446313	     -0.08574438	     36.38991630	    -18.39805694	     12.15269739	     -8.71086949	    -29.32804058	      2.73282240	     10.13286579	     -2.51350281	     -1.98607130	      1.53238564	     12.51645237	     10.53151596	    -24.44935562	      8.82470122	     -4.80320187	     27.46673127	      0.41398913	     -7.63726784	      0.00000000	      0.00000000	      0.00000000
      0.75000000	     12.18694195	      9.67304735	    -80.12578926	     -0.20898010	      0.93322072	     -0.07253665	     36.58217244	    -18.43408052	     11.98917380	    -10.74866378	    -28.01692840	      3.82306470	     10.02837998	     -3.83366371	     -2.26940513	      1.46854472	     11.84444326	     10.69760343	    -25.58169602	      8.11338234	     -4.95474264	     27.02875395	      0.13696414	     -7.70741614	      0.00000000	      0.00000000	      0.00000000
      0.76000000	     11.61598897	      9.72544790	    -79.58753346	     -0.20998811	      0.93232853	     -0.05885601	     36.43600253	    -18.06963746	     11.39841576	    -12.01323526	    -27.08373356	      4.46217803	      9.94661754	     -4.61278868	     -2.24526194	      1.42892495	     10.90150564	     10.76031246	    -26.74624056	      7.61223707	     -5.13894897	     26.55293454	      0.17652953	     -7.65374757	      0.00000000	      0.00000000	      0.00000000
      0.77000000	     10.86269621	      9.81410344	    -79.03595783	     -0.21085300	      0.93183999	     -0.04549334	     36.08991390	    -17.37913269	     10.79744211	    -12.43768143	    -25.96701765	      4.68099302	      8.96357775	     -7.51938734	     -1.44286309	      1.66685416	      9.80686871	     10.85473294	    -28.14511071	      7.14121739	     -5.39047642	     25.78998556	     -0.06728419	     -7.44129781	      0.00000000	      0.00000000	      0.00000000
      0.78000000	      9.91598947	      9.90226080	    -78.37747913	     -0.21184119	      0.93163561	     -0.03170491	     35.52665737	    -16.37627906	      9.22984539	    -12.25010477	    -24.41827320	      4.24312334	      7.04454203	     -9.27306449	     -0.75164398	      2.05075812	      8.51677653	     11.12722406	    -29.79979798	      6.57399239	     -5.66934627	     24.89347066	     -0.37325703	     -7.28781427	      0.00000000	      0.00000000	      0.00000000
      0.79000000	      9.22840530	     10.11925975	    -78.01276858	     -0.21276908	      0.93129189	     -0.01841222	     35.30491485	    -15.49442578	      8.14864404	    -12.20149574	    -22.59835266	      3.71566470	      4.43193921	    -11.38524716	     -0.18083403	      2.70772628	      7.61006704	     11.47218759	    -31.49342840	      6.18291003	     -6.02162696	     23.41399810	     -1.31134623	     -6.92610394	      0.00000000	      0.00000000	      0.00000000
      0.80000000	      8.33762321	     10.24008470	    -77.65030165	     -0.21412071	      0.93107643	     -0.00528382	     35.12935399	    -14.30603036	      6.52342311	    -12.42672919	    -20.35410750	      2.78546903	      2.44939609	    -13.61914176	      0.14341314	      3.59009181	      6.40760031	     11.76514679	    -33.68886348	      6.14436487	     -6.54196588	     21.92941468	     -1.65445770	     -6.37431466	      0.00000000	      0.00000000	      0.00000000
